<?xml version="1.0" encoding="utf-8"?>
<!-- Generator: Adobe Illustrator 16.0.0, SVG Export Plug-In . SVG Version: 6.00 Build 0)  -->
<!DOCTYPE svg PUBLIC "-//W3C//DTD SVG 1.1//EN" "http://www.w3.org/Graphics/SVG/1.1/DTD/svg11.dtd">
<svg version="1.1" id="Layer_1" xmlns="http://www.w3.org/2000/svg" xmlns:xlink="http://www.w3.org/1999/xlink" x="0px" y="0px"
	 width="110px" height="18px" viewBox="0 0 110 18" enable-background="new 0 0 110 18" xml:space="preserve">
<path fill="#C0963A" d="M110,9c0,4.95-4.5,9-10,9H10C4.5,18,0,13.95,0,9s4.5-9,10-9h90C105.5,0,110,4.05,110,9z"/>
<g>
	<path fill="#DBDA96" d="M9.453,5.622h1.616l1.67,3.716l1.426-3.716h1.509l-2.417,5.44c-0.264,0.589-0.532,1.037-0.806,1.345
		s-0.626,0.462-1.06,0.462c-0.426,0-0.76-0.028-1.001-0.084v-1.074c0.205,0.014,0.391,0.02,0.557,0.02
		c0.335,0,0.575-0.061,0.72-0.183s0.284-0.385,0.417-0.788L9.453,5.622z"/>
	<path fill="#DBDA96" d="M16.469,5.622h4.946v5.958h0.63v2.764h-1.201v-1.563h-4.507v1.563h-1.201V11.58h0.605
		c0.296-0.612,0.492-1.323,0.586-2.132c0.094-0.81,0.142-1.832,0.142-3.069V5.622z M17.846,6.823c0,2.175-0.197,3.761-0.591,4.757
		h2.72V6.823H17.846z"/>
	<path fill="#DBDA96" d="M29.472,12.781H27.9l-0.625-1.627h-2.861l-0.591,1.627H22.29l2.788-7.159h1.528L29.472,12.781z
		 M26.811,9.948l-0.986-2.656l-0.967,2.656H26.811z"/>
	<path fill="#DBDA96" d="M30.874,5.622h5.015v7.159h-1.445V6.833H32.29V9.89c0,0.876-0.029,1.487-0.088,1.834
		S32,12.34,31.774,12.534s-0.58,0.29-1.062,0.29c-0.169,0-0.477-0.016-0.923-0.049v-1.117l0.322,0.004
		c0.303,0,0.506-0.04,0.61-0.121c0.104-0.082,0.156-0.282,0.156-0.602l-0.005-1.23V5.622z"/>
	<path fill="#DBDA96" d="M37.397,5.622h1.353v4.767l2.9-4.767h1.44v7.159h-1.353V8.107l-2.896,4.674h-1.445V5.622z"/>
	<path fill="#DBDA96" d="M46.176,12.781V6.833h-2.124V5.622h5.688v1.211h-2.119v5.948H46.176z"/>
	<path fill="#DBDA96" d="M50.703,5.622h1.445v2.861h1.934c0.912,0,1.571,0.214,1.98,0.64c0.409,0.427,0.612,0.938,0.612,1.533
		c0,0.488-0.123,0.904-0.371,1.246c-0.247,0.342-0.529,0.573-0.847,0.695s-0.775,0.184-1.375,0.184h-3.379V5.622z M52.148,11.58
		h1.406c0.456,0,0.771-0.022,0.947-0.066s0.333-0.145,0.471-0.301s0.208-0.348,0.208-0.576c0-0.328-0.118-0.569-0.354-0.723
		c-0.236-0.152-0.639-0.229-1.208-0.229h-1.47V11.58z"/>
	<path fill="#DBDA96" d="M60.639,12.781V5.622h2.32c0.879,0,1.451,0.036,1.719,0.107c0.41,0.107,0.753,0.341,1.029,0.701
		c0.277,0.359,0.416,0.824,0.416,1.394c0,0.439-0.08,0.81-0.24,1.108c-0.159,0.3-0.361,0.535-0.607,0.706s-0.496,0.284-0.75,0.339
		c-0.345,0.068-0.844,0.103-1.498,0.103h-0.943v2.701H60.639z M62.084,6.833v2.031h0.791c0.57,0,0.951-0.037,1.143-0.112
		C64.21,8.678,64.361,8.561,64.47,8.4c0.108-0.159,0.163-0.345,0.163-0.557c0-0.26-0.076-0.475-0.229-0.645
		c-0.153-0.169-0.348-0.274-0.582-0.317c-0.172-0.032-0.519-0.049-1.039-0.049H62.084z"/>
	<path fill="#DBDA96" d="M67.309,12.781V5.622h5.309v1.211h-3.863V8.42h3.594v1.206h-3.594v1.948h4v1.207H67.309z"/>
	<path fill="#DBDA96" d="M74.004,5.622h1.445v3.047c0.322-0.032,0.54-0.115,0.654-0.249c0.113-0.133,0.289-0.504,0.527-1.113
		c0.299-0.774,0.6-1.256,0.902-1.445c0.3-0.188,0.783-0.283,1.451-0.283c0.032,0,0.102-0.001,0.209-0.005v1.069l-0.205-0.005
		c-0.296,0-0.512,0.037-0.648,0.11s-0.248,0.185-0.332,0.334c-0.085,0.15-0.211,0.458-0.377,0.923
		c-0.088,0.248-0.183,0.454-0.285,0.62s-0.284,0.322-0.545,0.469c0.322,0.092,0.589,0.275,0.799,0.552
		c0.21,0.277,0.44,0.668,0.691,1.173l0.977,1.963h-1.699l-0.855-1.852c-0.013-0.025-0.04-0.076-0.082-0.15
		c-0.017-0.026-0.077-0.139-0.182-0.338c-0.186-0.352-0.338-0.571-0.456-0.659s-0.3-0.133-0.544-0.137v3.136h-1.445V5.622z"/>
	<path fill="#DBDA96" d="M79.789,9.245c0-0.729,0.109-1.341,0.328-1.836c0.162-0.364,0.385-0.691,0.666-0.981
		c0.281-0.289,0.59-0.504,0.926-0.645c0.445-0.188,0.96-0.283,1.543-0.283c1.055,0,1.898,0.327,2.531,0.981s0.949,1.564,0.949,2.729
		c0,1.156-0.313,2.061-0.941,2.713c-0.629,0.652-1.469,0.979-2.52,0.979c-1.064,0-1.911-0.324-2.539-0.974
		C80.104,11.279,79.789,10.385,79.789,9.245z M81.279,9.196c0,0.811,0.187,1.425,0.561,1.844c0.375,0.419,0.85,0.628,1.426,0.628
		s1.049-0.208,1.419-0.623s0.554-1.038,0.554-1.868c0-0.82-0.18-1.432-0.539-1.836c-0.359-0.403-0.838-0.605-1.434-0.605
		s-1.075,0.204-1.439,0.613C81.461,7.757,81.279,8.373,81.279,9.196z"/>
	<path fill="#DBDA96" d="M87.861,12.781V5.622h2.318c0.879,0,1.452,0.036,1.719,0.107c0.41,0.107,0.754,0.341,1.031,0.701
		c0.276,0.359,0.414,0.824,0.414,1.394c0,0.439-0.079,0.81-0.238,1.108c-0.16,0.3-0.363,0.535-0.608,0.706s-0.495,0.284-0.749,0.339
		c-0.346,0.068-0.846,0.103-1.5,0.103h-0.941v2.701H87.861z M89.307,6.833v2.031h0.791c0.569,0,0.95-0.037,1.143-0.112
		c0.191-0.074,0.342-0.191,0.451-0.352c0.109-0.159,0.164-0.345,0.164-0.557c0-0.26-0.077-0.475-0.23-0.645
		c-0.152-0.169-0.346-0.274-0.58-0.317c-0.173-0.032-0.52-0.049-1.041-0.049H89.307z"/>
	<path fill="#DBDA96" d="M94.477,5.622h4.947v5.958h0.629v2.764h-1.201v-1.563h-4.506v1.563h-1.201V11.58h0.605
		c0.296-0.612,0.491-1.323,0.586-2.132c0.094-0.81,0.141-1.832,0.141-3.069V5.622z M95.854,6.823c0,2.175-0.196,3.761-0.59,4.757
		h2.719V6.823H95.854z"/>
</g>
</svg>
